<svg xmlns="http://www.w3.org/2000/svg" xmlns:xlink="http://www.w3.org/1999/xlink" id="Layer_1" data-name="Layer 1" viewBox="0 0 2112.42 894.82">
  <defs>
    <style>.cls-1,.cls-4{fill:none;stroke-miterlimit:10;stroke-width:7.07px;}.cls-1{stroke:url(#radial-gradient);}.cls-2{fill:#fff;}.cls-3{mask:url(#mask);}.cls-4{stroke:#fff;}</style>
    <radialGradient id="radial-gradient" cx="1006.89" cy="1293.76" r="600.01" gradientTransform="translate(-261.53 76.51) scale(1.24 0.92)" gradientUnits="userSpaceOnUse">
      <stop offset="0" stop-color="#fff"/>
      <stop offset="1" stop-color="#231f20"/>
    </radialGradient>
    <mask id="mask" x="0" y="751.08" width="2112.42" height="7.07" maskUnits="userSpaceOnUse">
      <g transform="translate(64.42 -512.54)">
        <line class="cls-1" x1="-64.42" y1="1267.16" x2="2048" y2="1267.16"/>
      </g>
    </mask>
  </defs>
  <path class="cls-2" d="M280.45,519.14H453.73L624.3,986.52,796.67,519.14H968.15v667.14H859.85V632.21H858L664,1186.28H584.59l-194-554.07h-1.8v554.07H280.45Z" transform="translate(64.42 -512.54)"/>
  <path class="cls-2" d="M1158.6,512.54c39.71,0,70.39,29.21,70.39,67.85s-30.68,67.84-70.39,67.84a67.85,67.85,0,1,1,0-135.69ZM1105.35,734h108.3v452.3h-108.3Z" transform="translate(64.42 -512.54)"/>
  <path class="cls-2" d="M1671.22,519.14,1517.79,766l1.81,1.88c12.63-7.53,37.9-11.3,59.56-11.3,112.81,0,192.23,97,192.23,213,0,138.51-96.56,228-227.42,228-133.57,0-227.43-85.75-227.43-227.09,0-69.73,24.37-124.39,59.56-182.81l163.35-268.55Zm-124.55,571c64.08,0,116.42-54.65,116.42-121.55s-52.34-121.56-116.42-121.56-116.42,54.65-116.42,121.56S1482.6,1090.17,1546.67,1090.17Z" transform="translate(64.42 -512.54)"/>
  <path class="cls-2" d="M275.55,1336.63h17.91L311.1,1385l17.82-48.33h17.73v69h-11.2v-57.29h-.18l-20.06,57.29H307l-20.06-57.29h-.19v57.29H275.55Z" transform="translate(64.42 -512.54)"/>
  <path class="cls-2" d="M396.84,1336.63H407l28.46,69H422l-6.16-15.79H387.24l-6,15.79H368.1Zm14.93,42.68-10.16-28.06-10.36,28.06Z" transform="translate(64.42 -512.54)"/>
  <path class="cls-2" d="M502,1352.81c-4.85-5.36-9.33-6.83-13.91-6.83-13.62,0-22.67,10.92-22.67,24.66,0,14.7,9,25.62,22.67,25.62,5.32,0,10.45-2.54,14.84-8.38l9.71,7.21c-6,8.58-14.93,12.28-24.64,12.28-20.34,0-34.9-14.42-34.9-35.95,0-22.12,14.56-36.54,34.9-36.54,9,0,16.61,3,23.14,10.92Z" transform="translate(64.42 -512.54)"/>
  <path class="cls-2" d="M534.33,1336.63H546.1v27.48H577v-27.48h11.76v69H577v-30.4H546.1v30.4H534.33Z" transform="translate(64.42 -512.54)"/>
  <path class="cls-2" d="M617,1336.63h11.76v69H617Z" transform="translate(64.42 -512.54)"/>
  <path class="cls-2" d="M657,1336.63h15.59l32,51.25h.18v-51.25H716.5v69H701.57l-32.66-52.91h-.19v52.91H657Z" transform="translate(64.42 -512.54)"/>
  <path class="cls-2" d="M745,1336.63H788.8v11.12h-32v16.94h30.33v11.12H756.79v18.7h33.69v11.11H745Z" transform="translate(64.42 -512.54)"/>
  <path class="cls-2" d="M856.92,1336.63h11.76v69H856.92Z" transform="translate(64.42 -512.54)"/>
  <path class="cls-2" d="M896.89,1336.63h15.59l32,51.25h.18v-51.25h11.76v69H941.5l-32.66-52.91h-.19v52.91H896.89Z" transform="translate(64.42 -512.54)"/>
  <path class="cls-2" d="M998.5,1347.75H978.25v-11.12h52.26v11.12h-20.26v57.87H998.5Z" transform="translate(64.42 -512.54)"/>
  <path class="cls-2" d="M1052.31,1336.63h43.76v11.12h-32v16.94h30.34v11.12h-30.34v18.7h33.69v11.11h-45.44Z" transform="translate(64.42 -512.54)"/>
  <path class="cls-2" d="M1123.1,1336.63h11.75v57.88h28.09v11.11H1123.1Z" transform="translate(64.42 -512.54)"/>
  <path class="cls-2" d="M1185.29,1336.63h11.77v57.88h28.08v11.11h-39.85Z" transform="translate(64.42 -512.54)"/>
  <path class="cls-2" d="M1247.22,1336.63H1259v69h-11.75Z" transform="translate(64.42 -512.54)"/>
  <path class="cls-2" d="M1345.88,1400.55a55.14,55.14,0,0,1-27.33,6.82c-20.35,0-34.91-14.42-34.91-35.95,0-22.12,14.56-36.54,34.91-36.54,10.07,0,19.13,2.24,26,8.68l-8.69,9.15c-4.18-4.29-10.63-6.73-17.25-6.73-13.63,0-22.67,10.92-22.67,24.66,0,14.7,9,25.62,22.67,25.62,6,0,11.38-1.17,15.48-3.61v-16.26H1320.6v-11.11h25.28Z" transform="translate(64.42 -512.54)"/>
  <path class="cls-2" d="M1373.58,1336.63h43.76v11.12h-32v16.94h30.34v11.12h-30.34v18.7H1419v11.11h-45.44Z" transform="translate(64.42 -512.54)"/>
  <path class="cls-2" d="M1444.37,1336.63H1460l32,51.25h.18v-51.25h11.76v69H1489l-32.67-52.91h-.17v52.91h-11.77Z" transform="translate(64.42 -512.54)"/>
  <path class="cls-2" d="M1577.78,1352.81c-4.85-5.36-9.32-6.83-13.9-6.83-13.62,0-22.67,10.92-22.67,24.66,0,14.7,9,25.62,22.67,25.62,5.32,0,10.46-2.54,14.84-8.38l9.71,7.21c-6,8.58-14.93,12.28-24.64,12.28-20.34,0-34.91-14.42-34.91-35.95,0-22.12,14.57-36.54,34.91-36.54,9,0,16.62,3,23.14,10.92Z" transform="translate(64.42 -512.54)"/>
  <path class="cls-2" d="M1610.15,1336.63h43.76v11.12h-32v16.94h30.34v11.12H1621.9v18.7h33.69v11.11h-45.44Z" transform="translate(64.42 -512.54)"/>
  <path class="cls-2" d="M1755.71,1336.63l-15.86,25.54.19.19c1.31-.79,3.91-1.17,6.16-1.17,11.66,0,19.87,10,19.87,22,0,14.32-10,23.58-23.52,23.58-13.81,0-23.51-8.88-23.51-23.49,0-7.21,2.52-12.85,6.16-18.89l16.89-27.78Zm-12.88,59.06c6.64,0,12-5.66,12-12.57a12.05,12.05,0,1,0-24.08,0C1730.79,1390,1736.21,1395.69,1742.83,1395.69Z" transform="translate(64.42 -512.54)"/>
  <g class="cls-3">
    <line class="cls-4" y1="754.62" x2="2112.42" y2="754.62"/>
  </g>
</svg>